<svg xmlns="http://www.w3.org/2000/svg" width="60" height="56.03" viewBox="0 0 60 56.03">
  <defs>
    <style>
      .cls-1 {
        fill: #518a32;
        fill-rule: evenodd;
      }
    </style>
  </defs>
  <path id="box" class="cls-1" d="M1348.75,2274.47l-6.55-8.24a3.262,3.262,0,0,0-2.56-1.23h-33.9a3.257,3.257,0,0,0-2.55,1.23l-6.56,8.24a6.682,6.682,0,0,0-1.25,3.67v6.03a4.313,4.313,0,0,1,2.2-1.75,4.426,4.426,0,0,1,.62-1.96,4.548,4.548,0,0,1,2.79-2.12,4.666,4.666,0,0,1,1.2-.16,4.571,4.571,0,0,1,3.81,2.05,4.756,4.756,0,0,1,.75-0.07,4.226,4.226,0,0,1,2.13.58l3.63-.95a5.409,5.409,0,0,1,1.39-.18,5.529,5.529,0,0,1,5.34,4.14l7.12,27.39a5.524,5.524,0,0,1-3.95,6.74l-3.18.83h26.69a4.086,4.086,0,0,0,4.08-4.09v-36.59A6.633,6.633,0,0,0,1348.75,2274.47Zm-49.98-.07,2.18-2.73h14.81l1.47-2.41h-14.37l1.61-2.01a1.616,1.616,0,0,1,1.27-.62h33.9a1.636,1.636,0,0,1,1.28.62l1.6,2.01H1327.9l0.82,2.41h15.72l2.17,2.73h-47.84Zm0.67,10.06-0.92.24a1.821,1.821,0,0,0-1.31,2.22l0.01,0.04a1.832,1.832,0,0,0,2.23,1.31l7.77-2.02a1.844,1.844,0,0,0,1.31-2.23l-0.01-.04a1.84,1.84,0,0,0-2.23-1.31l-0.92.24a0.9,0.9,0,0,1-1.11-.65l-0.01-.03a2.14,2.14,0,0,0-2.6-1.53l-0.04.01a2.14,2.14,0,0,0-1.53,2.6l0.01,0.03A0.914,0.914,0,0,1,1299.44,2284.46Zm2.5-2.56a0.924,0.924,0,0,1,.46,1.79A0.924,0.924,0,0,1,1301.94,2281.9Zm11.45,28.17a0.616,0.616,0,0,1-.44.75l-11.3,2.94a0.615,0.615,0,0,1-.75-0.44l-0.16-.6a0.62,0.62,0,0,1,.44-0.75l11.31-2.94a0.616,0.616,0,0,1,.75.44Zm1.38-11.81,0.15,0.6a0.612,0.612,0,0,1-.44.75l-15.46,4.03a0.615,0.615,0,0,1-.75-0.44l-0.16-.6a0.62,0.62,0,0,1,.44-0.75l15.47-4.03A0.628,0.628,0,0,1,1314.77,2298.26Zm-1.68-4.01-15.47,4.03a0.62,0.62,0,0,1-.75-0.44l-0.15-.6a0.612,0.612,0,0,1,.44-0.75l15.47-4.02a0.612,0.612,0,0,1,.75.44l0.15,0.59A0.607,0.607,0,0,1,1313.09,2294.25Zm-0.34,10.9-12.5,3.25a0.616,0.616,0,0,1-.75-0.44l-0.15-.6a0.616,0.616,0,0,1,.44-0.75l12.49-3.25a0.615,0.615,0,0,1,.75.44l0.16,0.6A0.62,0.62,0,0,1,1312.75,2305.15Zm11.24,6.6-7.12-27.38a3.061,3.061,0,0,0-3.75-2.2l-3.62.94a4.634,4.634,0,0,1,.21.56,3.08,3.08,0,0,1-2.18,3.77l-7.66,1.99a3.134,3.134,0,0,1-3.77-1.93,3.2,3.2,0,0,1-.17-0.86l-3.63.95a3.068,3.068,0,0,0-2.2,3.75l7.12,27.38a3.084,3.084,0,0,0,3.75,2.21l20.82-5.42A3.083,3.083,0,0,0,1323.99,2311.75Zm-23.79,6.2-6.19-23.81,20.82-5.43,6.19,23.82Z" transform="translate(-1290 -2265)"/>
</svg>
