<svg xmlns="http://www.w3.org/2000/svg" width="59" height="60" viewBox="0 0 59 60">
  <defs>
    <style>
      .cls-1 {
        fill: #d12c2c;
        fill-rule: evenodd;
      }
    </style>
  </defs>
  <path id="clock" class="cls-1" d="M627.08,1792.04a2.371,2.371,0,0,0-4.435,1.68,24.753,24.753,0,0,1-32.894,31.52,24.945,24.945,0,0,1-4.913-2.81,24.75,24.75,0,0,1,23.628-43.01l-1.68,2.84c-0.462.78-.107,1.3,0.787,1.15l7.983-1.29a1.322,1.322,0,0,0,1.075-1.81l-2.708-7.62c-0.3-.86-0.929-0.92-1.39-0.14l-1.621,2.74a29.5,29.5,0,0,0-28.885,50.97,30.068,30.068,0,0,0,5.855,3.34A29.5,29.5,0,0,0,627.08,1792.04Zm-28.619-8.5a1.92,1.92,0,0,0-1.92,1.92v19.14l17.495,9.05a1.975,1.975,0,0,0,.879.21,1.917,1.917,0,0,0,.883-3.62l-15.417-7.98v-16.8A1.92,1.92,0,0,0,598.461,1783.54Z" transform="translate(-570 -1772)"/>
</svg>
