<svg xmlns="http://www.w3.org/2000/svg" width="52" height="60" viewBox="0 0 52 60">
  <defs>
    <style>
      .cls-1 {
        fill: #d12c2c;
        fill-rule: evenodd;
      }
    </style>
  </defs>
  <path id="doc" class="cls-1" d="M1297.71,1825.5h3.72v3.75a3.73,3.73,0,0,0,3.71,3.75h37.15a3.73,3.73,0,0,0,3.71-3.75v-45a3.73,3.73,0,0,0-3.71-3.75h-3.72v-3.75a3.73,3.73,0,0,0-3.71-3.75h-37.15a3.73,3.73,0,0,0-3.71,3.75v45A3.73,3.73,0,0,0,1297.71,1825.5Zm37.15-3.75h-37.15v-45h37.15v45Zm7.43-37.5v45h-37.15v-3.75h29.72a3.73,3.73,0,0,0,3.71-3.75v-37.5h3.72Zm-33.43,1.87a1.865,1.865,0,0,0,1.85,1.88h18.58a1.875,1.875,0,0,0,0-3.75h-18.58A1.863,1.863,0,0,0,1308.86,1786.12Zm-5.57,13.13h26a1.875,1.875,0,0,0,0-3.75h-26A1.875,1.875,0,0,0,1303.29,1799.25Zm0,7.5h26a1.875,1.875,0,0,0,0-3.75h-26A1.875,1.875,0,0,0,1303.29,1806.75Zm0,7.5h26a1.875,1.875,0,0,0,0-3.75h-26A1.875,1.875,0,0,0,1303.29,1814.25Z" transform="translate(-1294 -1773)"/>
</svg>
