<svg xmlns="http://www.w3.org/2000/svg" width="46" height="60" viewBox="0 0 46 60">
  <defs>
    <style>
      .cls-1 {
        fill: #518a32;
        fill-rule: evenodd;
      }
    </style>
  </defs>
  <path id="dogovor" class="cls-1" d="M862.624,2273.86l-12.775-12.49a1.276,1.276,0,0,0-.905-0.37H822.111a5.061,5.061,0,0,0-5.111,5v50a5.061,5.061,0,0,0,5.111,5h35.778a5.061,5.061,0,0,0,5.111-5v-41.25A1.243,1.243,0,0,0,862.624,2273.86Zm-36.68-.36h15.334a1.25,1.25,0,1,1,0,2.5H825.944A1.25,1.25,0,1,1,825.944,2273.5Zm18.785,34.64c-5.563,5.36-6.858,5.36-7.285,5.36-1.587,0-2.156-1.78-2.745-3.69-0.891,1.77-1.917,3.69-3.644,3.69a4.991,4.991,0,0,1-2.952-1.44,13.449,13.449,0,0,1-1.392,1.19,1.3,1.3,0,0,1-1.79-.25,1.234,1.234,0,0,1,.257-1.75,12.793,12.793,0,0,0,1.221-1.05,7.788,7.788,0,0,1-1.732-4.2c0-2.85,2.326-5,3.833-5a3.736,3.736,0,0,1,3.833,3.75c0,1.59-1.13,3.65-2.538,5.43a3.008,3.008,0,0,0,1.273.82,13.77,13.77,0,0,0,1.432-2.48c0.764-1.52,1.268-2.52,2.389-2.52,1.31,0,1.717,1.33,2.236,3.01a18.665,18.665,0,0,0,.626,1.82,52.929,52.929,0,0,0,5.186-4.47,1.3,1.3,0,0,1,1.807.01A1.233,1.233,0,0,1,844.729,2308.14Zm9.326-9.64H836.167a1.25,1.25,0,1,1,0-2.5h17.888A1.25,1.25,0,1,1,854.055,2298.5Zm0-7.5H825.944a1.25,1.25,0,1,1,0-2.5h28.112A1.25,1.25,0,1,1,854.055,2291Zm0-7.5H825.944a1.25,1.25,0,1,1,0-2.5h28.112A1.25,1.25,0,1,1,854.055,2283.5Zm-1.277-10a2.53,2.53,0,0,1-2.556-2.5v-5.73l8.416,8.23h-5.86Zm-24.278,30a3.206,3.206,0,0,0-1.278,2.5,4.463,4.463,0,0,0,.889,2.22,7.472,7.472,0,0,0,1.667-3.47A1.194,1.194,0,0,0,828.5,2303.5Z" transform="translate(-817 -2261)"/>
</svg>
