<svg xmlns="http://www.w3.org/2000/svg" width="60" height="60" viewBox="0 0 60 60">
  <defs>
    <style>
      .cls-1 {
        fill: #d12c2c;
        fill-rule: evenodd;
      }
    </style>
  </defs>
  <path id="location" class="cls-1" d="M824.7,1823.99c0.491-.42,12.031-10.58,12.031-21.11a13.365,13.365,0,0,0-26.728,0c0,10.53,11.54,20.69,12.031,21.11A2.027,2.027,0,0,0,824.7,1823.99Zm-10.664-21.11a9.332,9.332,0,0,1,18.662,0c0,6.83-6.469,14.02-9.331,16.86C820.5,1816.9,814.032,1809.71,814.032,1802.88Zm41.272,3.43a2.027,2.027,0,0,0,2.666,0c0.491-.43,12.031-10.58,12.031-21.11a13.365,13.365,0,0,0-26.728,0C843.272,1795.73,854.813,1805.88,855.3,1806.31Zm1.333-30.33a9.288,9.288,0,0,1,9.33,9.22c0,6.83-6.469,14.01-9.33,16.86-2.862-2.85-9.332-10.03-9.332-16.86A9.289,9.289,0,0,1,856.637,1775.98Zm-0.03,32.61-33.273,19.71a1.977,1.977,0,0,0-.692,2.73,2.007,2.007,0,0,0,1.731.97,2.048,2.048,0,0,0,1.036-.28L858.682,1812a1.972,1.972,0,0,0,.692-2.73A2.03,2.03,0,0,0,856.607,1808.59Zm-30.381-.74a0.965,0.965,0,0,0,.417.33,1.34,1.34,0,0,0,.582.13,1.357,1.357,0,0,0,.972-0.4,1.256,1.256,0,0,0,.4-0.9,3.305,3.305,0,0,0-.33-1.19l-2.864-7.01a3.5,3.5,0,0,0-.328-0.6,1.831,1.831,0,0,0-.582-0.52,1.9,1.9,0,0,0-.892-0.2,1.88,1.88,0,0,0-.885.2,1.785,1.785,0,0,0-.585.54,3.921,3.921,0,0,0-.362.7l-3,7.56a1.8,1.8,0,0,0-.085.53,1.208,1.208,0,0,0,.413.9,1.314,1.314,0,0,0,.941.39,1.049,1.049,0,0,0,.958-0.42c0.286-.48.9-2.06,0.9-2.06h3.432S825.938,1807.37,826.226,1807.85Zm-3.517-4.29,0.884-2.43,0.9,2.43h-1.783Zm35.961-13.22a4.288,4.288,0,0,0,1.14-.29,2.928,2.928,0,0,0,1.316-1.11,3.039,3.039,0,0,0,.486-1.68,2.621,2.621,0,0,0-1.459-2.43,2.524,2.524,0,0,0,1-2.07,2.738,2.738,0,0,0-.166-0.94,2.769,2.769,0,0,0-1.194-1.41,3.1,3.1,0,0,0-1.066-.39,8.055,8.055,0,0,0-1.285-.09h-3.181a1.675,1.675,0,0,0-1.206.4,1.624,1.624,0,0,0-.4,1.2v7.29a1.665,1.665,0,0,0,.39,1.19,1.641,1.641,0,0,0,1.219.41h3A11.616,11.616,0,0,0,858.67,1790.34Zm-3.225-8.16h1.685a0.865,0.865,0,1,1,0,1.73h-1.685v-1.73Zm0,3.94h2.283a1.015,1.015,0,1,1,0,2.03h-2.283v-2.03Z" transform="translate(-810 -1772)"/>
</svg>
