<svg xmlns="http://www.w3.org/2000/svg" width="24" height="19" viewBox="0 0 24 19">
  <defs>
    <style>
      .cls-1 {
        fill: #633;
        fill-rule: evenodd;
      }
    </style>
  </defs>
  <path id="mail" class="cls-1" d="M1040.3,54.856c0.31,0.216,1.22.857,2.75,1.923s2.7,1.887,3.51,2.463q0.135,0.095.57,0.412t0.72,0.513c0.19,0.13.42,0.277,0.7,0.438a3.992,3.992,0,0,0,.77.364,2.083,2.083,0,0,0,.67.122h0.02a2.083,2.083,0,0,0,.67-0.122,3.992,3.992,0,0,0,.77-0.364c0.28-.162.51-0.308,0.7-0.438s0.43-.3.72-0.513,0.48-.348.57-0.412q1.23-.864,6.27-4.387a6.284,6.284,0,0,0,1.63-1.66,3.572,3.572,0,0,0,.66-2.038,2.176,2.176,0,0,0-2.14-2.16h-19.72a1.9,1.9,0,0,0-1.58.7,2.744,2.744,0,0,0-.56,1.755,3.179,3.179,0,0,0,.74,1.842A6.7,6.7,0,0,0,1040.3,54.856Zm20.36,1.444q-4.4,3-6.67,4.657c-0.51.378-.92,0.673-1.24,0.884a7.548,7.548,0,0,1-1.26.648,3.859,3.859,0,0,1-1.48.331h-0.02a3.859,3.859,0,0,1-1.48-.331,7.548,7.548,0,0,1-1.26-.648c-0.32-.211-0.73-0.506-1.24-0.884q-1.815-1.336-6.66-4.657a6.986,6.986,0,0,1-1.35-1.174V65.842a2.086,2.086,0,0,0,.63,1.525,2.046,2.046,0,0,0,1.51.635h19.72a2.046,2.046,0,0,0,1.51-.635,2.086,2.086,0,0,0,.63-1.525V55.125A7.247,7.247,0,0,1,1060.66,56.3Z" transform="translate(-1038 -49)"/>
</svg>
