<svg xmlns="http://www.w3.org/2000/svg" width="24" height="24" viewBox="0 0 24 24">
  <defs>
    <style>
      .cls-1 {
        fill: #633;
        fill-rule: evenodd;
      }
    </style>
  </defs>
  <path id="phone" class="cls-1" d="M853,46a12,12,0,1,0,12,12A12,12,0,0,0,853,46Zm6.337,17.509-0.961.961a1.768,1.768,0,0,1-.69.278A11.332,11.332,0,0,1,846.25,53.286a1.793,1.793,0,0,1,.281-0.659l0.961-.961a1.606,1.606,0,0,1,1.5-.355l0.2,0.068a1.9,1.9,0,0,1,1.1,1.16l0.484,1.774a1.742,1.742,0,0,1-.4,1.519l-0.642.642a6.815,6.815,0,0,0,4.792,4.793l0.641-.642a1.738,1.738,0,0,1,1.519-.4l1.774,0.485a1.9,1.9,0,0,1,1.16,1.1l0.068,0.205A1.607,1.607,0,0,1,859.337,63.509Z" transform="translate(-841 -46)"/>
</svg>
