<svg xmlns="http://www.w3.org/2000/svg" width="42" height="60" viewBox="0 0 42 60">
  <defs>
    <style>
      .cls-1 {
        fill: #518a32;
        fill-rule: evenodd;
      }
    </style>
  </defs>
  <path id="request" class="cls-1" d="M590.929,2268.51v-2.23a0.885,0.885,0,0,1,.894-0.88h1.435a3.852,3.852,0,0,0,3.5-2.31,3.556,3.556,0,0,1,6.48,0,3.851,3.851,0,0,0,3.5,2.31h1.436a0.884,0.884,0,0,1,.893.88v2.23a0.884,0.884,0,0,1-.893.88H591.822A0.885,0.885,0,0,1,590.929,2268.51Zm-3.133,41.65h4.185v-4.13H587.8v4.13Zm0-24.87h4.185v-4.13H587.8v4.13Zm33.2-10.93v40.9a5.787,5.787,0,0,1-5.813,5.74H584.813a5.786,5.786,0,0,1-5.813-5.74v-40.9a5.786,5.786,0,0,1,5.813-5.74h3.219a3.773,3.773,0,0,0,3.791,3.64h16.354a3.774,3.774,0,0,0,3.791-3.64h3.219A5.787,5.787,0,0,1,621,2274.36Zm-23.821,8.84a1.449,1.449,0,0,0,1.451,1.44h13.1a1.435,1.435,0,1,0,0-2.87h-13.1A1.44,1.44,0,0,0,597.179,2283.2Zm0,12.58a1.44,1.44,0,0,0,1.451,1.43h11.643a1.43,1.43,0,1,0,0-2.86H598.63A1.44,1.44,0,0,0,597.179,2295.78Zm-2.295,8.81a1.441,1.441,0,0,0-1.452-1.43h-7.087a1.441,1.441,0,0,0-1.452,1.43v7.01a1.441,1.441,0,0,0,1.452,1.43h7.087a1.441,1.441,0,0,0,1.452-1.43v-7.01Zm0-12.43a1.441,1.441,0,0,0-1.452-1.43h-7.087a1.441,1.441,0,0,0-1.452,1.43v7a1.443,1.443,0,0,0,1.452,1.44h7.087a1.443,1.443,0,0,0,1.452-1.44v-7Zm0-12.44a1.441,1.441,0,0,0-1.452-1.43h-7.087a1.441,1.441,0,0,0-1.452,1.43v7.01a1.441,1.441,0,0,0,1.452,1.43h7.087a1.441,1.441,0,0,0,1.452-1.43v-7.01Zm19.026,28.64a1.449,1.449,0,0,0-1.452-1.44H598.63a1.435,1.435,0,1,0,0,2.87h13.828A1.441,1.441,0,0,0,613.91,2308.36ZM587.8,2297.73h4.185v-4.14H587.8v4.14Z" transform="translate(-579 -2261)"/>
</svg>
