<svg xmlns="http://www.w3.org/2000/svg" width="49" height="60" viewBox="0 0 49 60">
  <defs>
    <style>
      .cls-1 {
        fill: #d12c2c;
        fill-rule: evenodd;
      }
    </style>
  </defs>
  <path id="shield" class="cls-1" d="M1080.5,1833s24.5-10.78,24.5-26.25V1780.5a29.892,29.892,0,0,1-3.8.21c-5.13,0-14.36-1.04-20.7-7.71-6.34,6.67-15.57,7.71-20.7,7.71a29.892,29.892,0,0,1-3.8-.21v26.25C1056,1822.22,1080.5,1833,1080.5,1833Zm-20.75-48.54h0.05c4.93,0,13.67-.9,20.7-6.41,7.03,5.51,15.77,6.41,20.71,6.41h0.05v22.29c0,9.87-13.81,18.7-20.76,22.11-6.95-3.4-20.75-12.21-20.75-22.11v-22.29h0Zm34.94,8.58-3.1-2.11-13.13,19.36-8.11-5.77-2.17,3.05,11.24,7.99Z" transform="translate(-1056 -1773)"/>
</svg>
