<svg xmlns="http://www.w3.org/2000/svg" width="70" height="43" viewBox="0 0 70 43">
  <defs>
    <style>
      .cls-1 {
        fill: #518a32;
        fill-rule: evenodd;
      }
    </style>
  </defs>
  <path id="truck" class="cls-1" d="M1065.74,2308.68a6.16,6.16,0,1,0,6.15,6.15A6.163,6.163,0,0,0,1065.74,2308.68Zm0,9.24a3.08,3.08,0,1,1,3.08-3.09A3.086,3.086,0,0,1,1065.74,2317.92Zm-5.31-9.24h-13.8a0.986,0.986,0,0,0-.99.99v3a0.986,0.986,0,0,0,.99.99h11.06A8.127,8.127,0,0,1,1060.43,2308.68Zm37.53,0a6.16,6.16,0,1,0,6.15,6.15A6.161,6.161,0,0,0,1097.96,2308.68Zm0,9.24a3.08,3.08,0,1,1,3.07-3.09A3.077,3.077,0,0,1,1097.96,2317.92Zm16.05-9.24h-2.41v-13.45a7.907,7.907,0,0,0-1.35-4.42l-6.03-8.93a7.893,7.893,0,0,0-6.56-3.48h-9.35a1.985,1.985,0,0,0-1.98,1.98v28.3h-15.29a8.09,8.09,0,0,1,2.73,4.99h16.15a8.122,8.122,0,0,1,16.08,0h8.01a0.992,0.992,0,0,0,.99-0.99v-3.01A0.986,0.986,0,0,0,1114.01,2308.68Zm-9.86-16.09h-12.33a0.986,0.986,0,0,1-.99-0.99v-6.84a0.986,0.986,0,0,1,.99-0.99h7.51a0.982,0.982,0,0,1,.81.42l4.82,6.84A0.988,0.988,0,0,1,1104.15,2292.59Zm-22.53,14.11h-34.64a1.985,1.985,0,0,1-1.98-1.98v-8.91a1.985,1.985,0,0,1,1.98-1.98h34.64a1.978,1.978,0,0,1,1.98,1.98v8.91A1.978,1.978,0,0,1,1081.62,2306.7Zm-20.78-15.83h-13.86a1.985,1.985,0,0,1-1.98-1.98v-8.91a1.985,1.985,0,0,1,1.98-1.98h13.86a1.985,1.985,0,0,1,1.98,1.98v8.91A1.985,1.985,0,0,1,1060.84,2290.87Zm20.78,0h-13.85a1.978,1.978,0,0,1-1.98-1.98v-8.91a1.978,1.978,0,0,1,1.98-1.98h13.85a1.978,1.978,0,0,1,1.98,1.98v8.91A1.978,1.978,0,0,1,1081.62,2290.87Z" transform="translate(-1045 -2278)"/>
</svg>
